<?xml version="1.0" encoding="UTF-8" standalone="no" ?>
<!DOCTYPE svg PUBLIC "-//W3C//DTD SVG 1.1//EN" "http://www.w3.org/Graphics/SVG/1.1/DTD/svg11.dtd">
<svg xmlns="http://www.w3.org/2000/svg" xmlns:xlink="http://www.w3.org/1999/xlink" version="1.1" width="1280" height="1024" viewBox="0 0 1280 1024" xml:space="preserve">
<desc>Created with Fabric.js 4.4.0</desc>
<defs>
</defs>
<g transform="matrix(1 0 0 1 640 512)" id="background-logo"  >
<rect style="stroke: none; stroke-width: 0; stroke-dasharray: none; stroke-linecap: butt; stroke-dashoffset: 0; stroke-linejoin: miter; stroke-miterlimit: 4; fill: rgb(255,255,255); fill-opacity: 0; fill-rule: nonzero; opacity: 1;"  paint-order="stroke"  x="-640" y="-512" rx="0" ry="0" width="1280" height="1024" />
</g>
<g transform="matrix(0.6525053885747475 0 0 0.6525053885747475 318.37037705604564 482.4242962002642)" id="logo-logo"  >
<g style=""  paint-order="stroke"   >
		<g transform="matrix(0.45923299348275043 0 0 0.45923299348275043 -0.0592897231052234 27.483948304577666)"  >
<linearGradient id="SVGID_1_9_763538" gradientUnits="userSpaceOnUse" gradientTransform="matrix(1 0 0 1 0 0)"  x1="269.3557129" y1="572.5343628" x2="687.0606079" y2="572.5343628">
<stop offset="0%" style="stop-color:rgb(185,185,185);stop-opacity: 1"/>
<stop offset="100%" style="stop-color:rgb(152,152,152);stop-opacity: 1"/>
</linearGradient>
<path style="stroke: none; stroke-width: 1; stroke-dasharray: none; stroke-linecap: butt; stroke-dashoffset: 0; stroke-linejoin: miter; stroke-miterlimit: 4; fill: url(#SVGID_1_9_763538); fill-rule: nonzero; opacity: 1;"  paint-order="stroke"  transform=" translate(-478.2081604, -572.5343934)" d="M 269.3557129 401.7583008 C 338.97317510000005 492.7700501 408.59066770000004 583.7818603999999 478.2081299 674.7936402 C 547.8256226 583.7130738000001 617.4431153 492.6325074 687.0606079 401.551941 C 617.2367554 515.5402833 547.4129028 629.5285034999999 477.5890198000001 743.5168458 C 408.1779175 629.5973511 338.7668152 515.6777954 269.3557129 401.7583008 z" stroke-linecap="round" />
</g>
		<g transform="matrix(0.45923299348275043 0 0 0.45923299348275043 -45.42270977138793 -19.59560424674757)"  >
<g style=""  paint-order="stroke"   >
		<g transform="matrix(1 0 0 1 0 0)"  >
<linearGradient id="SVGID_2_10_763539" gradientUnits="userSpaceOnUse" gradientTransform="matrix(1 0 0 1 0 0)"  x1="291.8268738" y1="470.0166016" x2="467.027771" y2="470.0166016">
<stop offset="0%" style="stop-color:rgb(185,185,185);stop-opacity: 1"/>
<stop offset="100%" style="stop-color:rgb(152,152,152);stop-opacity: 1"/>
</linearGradient>
<path style="stroke: none; stroke-width: 1; stroke-dasharray: none; stroke-linecap: butt; stroke-dashoffset: 0; stroke-linejoin: miter; stroke-miterlimit: 4; fill: url(#SVGID_2_10_763539); fill-rule: nonzero; opacity: 1;"  paint-order="stroke"  transform=" translate(-379.42732215000024, -470.01660130000005)" d="M 429.0982971 335.9569397 C 430.8636169 339.2801514 431.89834590000004 343.0215149 432.09078980000004 346.7763062 C 432.2877197 350.6095887 431.61099240000004 354.51013190000003 430.1341858 358.0556641 C 429.7055664 359.0848084 428.7096863 359.7051392 427.66036990000003 359.7051392 C 427.31695560000003 359.7051392 426.96829230000003 359.6386109 426.6315918 359.49847420000003 C 425.26577760000004 358.92971810000006 424.6200562 357.36135870000004 425.18881230000005 355.9959107 C 425.95327760000004 354.16036990000003 426.44192510000005 352.2044983 426.64944460000004 350.2223511 C 424.8377075 350.3169861 422.42318730000005 350.81372070000003 420.17019660000005 352.47467040000004 C 418.0353089000001 354.04861450000004 416.88995370000004 356.04412840000003 416.30514530000005 357.44094850000005 C 415.87539680000003 358.46746830000006 414.8806458 359.08593750000006 413.83319100000006 359.08593750000006 C 413.48828130000004 359.08593750000006 413.13778690000004 359.01904300000007 412.79995740000004 358.87741090000003 C 411.43524180000003 358.30603030000003 410.79214490000004 356.73657230000003 411.36349500000006 355.37222290000005 C 412.20916760000006 353.35244750000004 413.87207040000004 350.46234130000005 416.9912416000001 348.16268920000005 C 420.3345033000001 345.69821170000006 423.89004530000005 344.99185180000006 426.5084230000001 344.87142940000007 C 426.1502992000001 342.6408081000001 425.4246828000001 340.46090690000005 424.36743180000013 338.47036740000004 C 424.23159810000016 338.21466060000006 424.15423600000014 337.9458923 424.1067812000001 337.675354 L 349.2448427000001 373.7020264 C 354.5146181000001 374.1809998 361.6755373000001 376.1325074 367.5972902000001 382.4327698 C 370.6500551000001 385.6807556 372.5175783000001 389.21472170000004 373.6330873000001 392.614502 C 376.7037355000001 392.3886109 379.78747570000013 392.3343506 382.8638002000001 392.4528809 C 381.6416322000001 388.2307129 380.17401140000015 379.4656067 385.4617616000001 371.07568360000005 C 390.9064027000001 362.43603520000005 399.7993776000001 360.15167240000005 402.3953859000001 359.6572876000001 C 403.84902970000013 359.3796387000001 405.25109880000014 360.3340454000001 405.52764910000013 361.7873230000001 C 405.8045351000001 363.24057010000007 404.8508913000001 364.6430359000001 403.39761370000014 364.91955570000005 C 401.33862320000014 365.31192020000003 394.28637710000015 367.12094120000006 389.9938356000001 373.93212890000007 C 384.54623430000015 382.57589720000004 388.2087404000001 391.79174800000004 388.6444704000001 392.8141479000001 C 388.6541445000001 392.8368530000001 388.6569826000001 392.86041250000005 388.6659853000001 392.88330070000006 C 389.1907045000001 392.94091790000004 389.7156984000001 392.99679560000004 390.2389833000001 393.06451410000005 C 395.8066103000001 393.78564450000005 400.3061220000001 394.36953730000005 403.79443370000007 395.68566890000005 C 403.73922740000006 394.43801880000007 403.78756720000007 393.19186400000007 403.95779430000005 391.95169060000006 C 405.19656380000004 382.9226684000001 412.0021363000001 377.80874630000005 414.9082948 375.62530510000005 C 422.9291078 369.59774770000007 431.84042370000003 369.01666250000005 436.4405214 369.20834340000005 C 437.91845720000003 369.26965320000005 439.06716930000005 370.51739490000006 439.00585950000004 371.99569690000004 C 438.9445802 373.47323600000004 437.69534310000006 374.62570180000006 436.2185365 374.56103500000006 C 432.33258070000005 374.39923080000005 424.81698620000003 374.88092030000007 418.12649550000003 379.9077452000001 C 415.55365 381.84121690000006 410.20022600000004 385.8639525000001 409.2648927 392.6799925000001 C 408.90118420000005 395.33029160000007 409.2440492 398.0419310000001 410.2739869 400.7431334000001 C 412.1686707 403.81970200000006 411.99621590000004 406.8558043000001 411.8515321 409.31094350000006 C 411.7069398 411.7675475000001 411.60229499999997 413.54257190000004 413.0679017 415.44763170000004 C 413.9658509 416.61502060000004 414.6792298 416.86914050000007 416.1007386 417.37509140000003 C 417.6433106 417.92440780000004 419.563324 418.60827620000003 421.9474488 420.59628280000004 C 425.3909608 423.46740710000006 427.2990418 426.94213850000006 428.67828380000003 430.87686140000005 C 429.8314515 429.59905990000004 430.9794923 427.92193590000005 431.74215710000004 425.77932720000007 C 432.80453500000004 422.79431130000006 432.70962540000005 420.06863380000004 432.44281020000005 418.3074644000001 C 432.22122210000003 416.84484840000005 433.22717300000005 415.47976660000006 434.69015520000005 415.2581785000001 C 436.15054340000006 415.0373228000001 437.51785300000006 416.0425413000001 437.7394411 417.5055235000001 C 438.2540285 420.9012144000001 437.9251711 424.3836058000001 436.78915420000004 427.5756224000001 C 435.23382580000003 431.9453429000001 432.50683610000004 434.8904723000001 430.36267100000003 436.6621092000001 C 430.53512580000006 437.34036240000006 430.70651260000005 438.0252379000001 430.87966930000005 438.7223509000001 C 432.24975600000005 444.2363585000001 432.80285660000004 449.9684447000001 432.5487977 455.7776793000001 C 433.3330689 456.1500548000001 434.1224366 456.5639342000001 434.9132386 457.0344847000001 C 443.8410035 462.3490599000001 447.1687012 470.92517070000014 448.1851197 474.3660887000001 C 448.6044007 475.7846068000001 447.79385379999997 477.2741087000001 446.3753663 477.69338970000007 C 446.1219788 477.7681272000001 445.8663941 477.8040159000001 445.615265 477.8040159000001 C 444.4587098 477.8040159000001 443.3918458 477.0491636000001 443.0476686 475.88323950000006 C 442.2098695 473.04772920000005 439.47335830000003 465.98355080000005 432.17337050000003 461.63830540000004 C 427.56246960000004 458.89395120000006 422.962372 458.30801370000006 419.9157106 458.30053680000003 C 418.4362794 458.29681370000003 417.2401125 457.09426850000006 417.2438356 455.6152341 C 417.2475893 454.13842750000003 418.4463808 452.9433591 419.92242450000003 452.9433591 C 419.9246828 452.9433591 419.92691060000004 452.9433591 419.92916890000004 452.9433591 C 421.91867090000005 452.9485166 424.45538350000004 453.1615903 427.24819970000004 453.8702085 C 427.31527730000005 449.1491392 426.79528830000004 444.4997251 425.68130520000005 440.0156553 C 425.4131472 438.9363706 425.15371730000004 437.8982542 424.88952660000007 436.8947141 C 424.69754050000006 436.5295408 424.5919802000001 436.13958709999997 424.57888820000005 435.74676489999996 C 423.30587790000004 431.16488619999996 421.79190090000003 427.441467 418.5166323 424.7105711 C 416.86605860000003 423.3342894 415.6213076 422.8910826 414.30331440000003 422.42175269999996 C 412.6060183 421.8175047 410.68228170000003 421.13214089999997 408.82205220000003 418.71438579999995 C 406.1367495 415.2241513999999 406.3403933 411.77090439999995 406.50372330000005 408.9959104999999 C 406.63262950000006 406.80984479999995 406.7342836 405.08267199999995 405.61508190000006 403.3898618999999 C 403.5856019000001 400.3200376999999 398.96868910000006 399.5973203999999 389.55065930000006 398.3775937999999 C 384.68313610000007 397.7465512999999 379.7457277000001 397.58847029999987 374.8414918000001 397.8977048999999 C 375.6612855000001 403.9297483999999 374.5204469000001 408.6249387999999 374.4331666000001 408.9693906999999 C 374.1252442000001 410.18200669999993 373.0351869000001 410.9891660999999 371.8386537000001 410.9895322999999 C 371.62042250000013 410.9895322999999 371.3988038000001 410.9626462999999 371.1775819000001 410.9065854999999 C 369.7437440000001 410.5422360999999 368.8764344000001 409.0848691999999 369.24038710000013 407.6510312999999 C 369.3681947000001 407.1480405999999 372.26950090000014 395.2259213999999 363.6937562000001 386.1016232999999 C 355.2760926000001 377.14547709999994 343.3872376000001 379.0822751999999 342.8846437000001 379.1674801999999 C 341.8206178000001 379.35321019999986 340.8005373000001 378.8771359999999 340.2261049000001 378.0422360999999 L 335.7290956000001 380.2064206999999 C 335.8043519000001 380.5027768999999 335.8390199000001 380.8141477999999 335.80587780000013 381.13607769999993 L 333.96362320000014 399.0603330999999 L 338.05810560000015 409.4428403999999 C 338.60107440000013 410.8191526999999 337.92507950000015 412.3747861999999 336.54916390000017 412.9173886999999 C 336.22628790000016 413.0448300999999 335.8940736000002 413.1049802999999 335.5671082000002 413.1049802999999 C 334.4991150000002 413.1049802999999 333.4901429000002 412.4618528999999 333.07461550000016 411.40844709999993 L 330.28256230000017 404.3286741999999 L 325.5418396000002 409.0691526999999 C 325.0190430000002 409.5919492999999 324.33331300000015 409.8535459999999 323.6479797000002 409.8535459999999 C 322.9622802000002 409.8535459999999 322.2769165000002 409.5919492999999 321.75375360000015 409.0687864999999 C 320.70782460000015 408.0228269999999 320.70782460000015 406.32705679999987 321.75415030000016 405.28073109999985 L 328.64755240000017 398.3876951999999 L 330.24508660000015 382.8454893999999 L 291.82687370000014 401.3339231999999 C 299.0794677000001 404.2647703999999 306.16152950000014 407.7333372999999 312.9227904000001 411.6707761999999 C 320.17672720000013 415.89474469999993 327.2589110000001 420.0224912999999 333.74295030000013 424.69909649999994 C 336.45568830000013 424.34426859999996 340.82833850000014 423.20217879999996 344.2131041000001 419.58508279999995 C 349.0717772000001 414.39196759999993 350.0299071000001 405.87228369999997 346.5972289000001 398.38507059999995 C 345.98062120000014 397.04055769999997 346.57107530000013 395.45053079999997 347.9159545000001 394.83392309999994 C 349.2597350000001 394.2169796999999 350.8508910000001 394.8074032999999 351.4671020000001 396.1526791999999 C 355.8635253000001 405.7418515999999 354.5518798000001 416.37622049999993 348.12484740000014 423.2449643999999 C 345.34219360000014 426.2192380999999 342.1011047000001 427.9276425999999 339.20303340000015 428.9076230999999 C 345.86483760000016 434.4213864999999 351.66439810000014 440.8133847999999 356.03466790000016 448.9348142999999 C 359.1994323000002 454.81628399999994 360.73193350000014 459.96121199999993 361.9632262000002 464.0949399999999 C 363.7785949000002 470.1897580999999 364.8746032000002 473.8690793999999 369.4829100000002 476.31896949999987 C 371.83303820000015 477.56857279999986 373.72576890000016 477.76812719999987 376.34530620000015 478.0446469999999 C 379.4887693000002 478.3764950999999 383.40014630000013 478.78903179999986 389.3361509000002 481.1477658999999 C 394.66046120000016 483.2643124999999 401.28665140000015 485.8973080999999 406.4996030000002 492.1356503999999 C 415.6691281000002 503.1085812999999 414.1179502000002 517.5598141999999 413.6082456000002 522.3093869999999 C 412.8453061000002 529.4182736999999 410.5514524000002 536.2095944999999 406.7954709000002 542.4982908 L 418.9342648000002 556.9633177 C 419.4690548000002 556.7747800999999 420.0639645000002 556.7443235999999 420.64550750000024 556.9329221999999 C 426.89282200000025 558.9591062999999 433.4711911000002 557.7191770999999 437.81082120000025 553.6975706 C 441.4322201000002 550.3425900999999 442.46173060000024 546.0339964 442.75283780000024 543.7649534 C 442.94152800000023 542.2971189 444.28344690000023 541.2604977999999 445.75091520000024 541.4488523 C 447.2180173000002 541.6372068 448.25500460000023 542.9794919 448.06665010000023 544.446594 C 447.7334287000002 547.0422971 446.65350310000025 551.6713254 443.19345060000023 555.7942502 C 447.39041100000026 561.1604001 450.5024411000002 567.3921505999999 452.2310177000002 573.9685665999999 C 454.1185299000002 581.1470943999999 454.3823544000002 588.7987057999999 452.99447600000025 596.0968015 C 452.9258420000003 596.4573362 452.78222620000025 596.7824704 452.59139980000026 597.0703732999999 L 467.0277706000003 614.2733152 L 460.32876550000026 507.8506773 C 460.18853720000027 507.92840559999996 460.0422360000003 507.9987486 459.8848873000003 508.0517271 L 439.9307552000003 514.7672728 C 441.6419674000003 519.1938475 443.2883297000003 523.7401122 444.8529354000003 528.3922118 C 445.32455410000034 529.7950438 444.57006800000033 531.3137206 443.1679989000003 531.7853392000001 C 442.8847347000003 531.8802489000001 442.59701500000034 531.9258421000001 442.31375090000034 531.9258421000001 C 441.1949155000003 531.9258421000001 440.15158050000036 531.2195433 439.77529880000037 530.1007078000001 C 436.4222104000004 520.1307981000001 432.70626800000036 510.6331480000001 428.7309873000004 501.8731687000001 C 426.76913430000036 497.55111670000014 424.98251320000037 494.11395240000013 421.3883970000004 492.4712217000001 C 419.9033811000004 491.79183940000013 418.9512327000004 491.81277440000014 417.6321104000004 491.8396909000001 C 416.1082151000004 491.8673398000001 414.2151182000004 491.9099424000001 411.6060179000004 490.87258880000013 C 403.7130125000004 487.73361170000015 400.2448424000004 479.3839413000001 398.8797606000004 474.6859738000001 C 397.9196471000004 471.3806149000001 397.5814208000004 467.9428708000001 397.8588255000004 464.4511410000001 C 397.7991331000004 464.4218136000001 397.7399595000004 464.3959347000001 397.6802061000004 464.3662106000001 C 392.65875220000044 461.8700863000001 388.1865232000004 458.2345883000001 384.6680296000004 453.8341366000001 C 382.9896544000004 455.01535000000007 381.04086290000043 455.84243740000005 378.94131450000043 456.24151580000006 C 378.77239970000045 456.27365080000004 378.6038816000004 456.28936740000006 378.43795760000046 456.28936740000006 C 377.1771239000005 456.28936740000006 376.05383280000046 455.3947446000001 375.80944810000045 454.11001560000005 C 375.53329450000047 452.65713470000003 376.48730450000045 451.25503510000004 377.9405821000004 450.97851540000005 C 379.1262816000004 450.75280740000005 380.85833720000045 450.1975095 382.3762510000004 448.83242780000006 C 385.8250120000004 445.72970560000005 385.4292600000004 440.81274400000007 385.37246680000044 440.2622984000001 C 385.2214963000004 438.79071030000006 386.2921140000004 437.4753416000001 387.76367160000046 437.3240049000001 C 389.2352597000005 437.1752622000001 390.55102510000046 438.2436521000001 390.7019956000005 439.7152097000001 C 390.8140867000005 440.81021090000013 391.1117856000005 445.6044309000001 388.39361550000046 449.9229429000001 C 391.49087500000047 453.9761350000001 395.52227760000045 457.3109129000001 400.0646970000005 459.5695799000001 C 406.53958100000045 462.78778060000013 412.67700170000046 463.2160032000001 416.6881711000005 463.0075071000001 C 418.1634824000005 462.93499730000013 419.4254148000005 464.0665281000001 419.5016477000005 465.5433347000001 C 419.5782773000005 467.0209043000001 418.4429929000005 468.2809751000001 416.9654539000005 468.3572080000001 C 416.3458860000005 468.3893430000001 415.6818235000005 468.40878270000013 414.9793089000005 468.40878270000013 C 411.7075193000005 468.40878270000013 407.5889891000005 467.99032570000014 403.1236570000005 466.56713840000015 C 403.10348490000047 468.82675140000015 403.40109230000047 471.0458676000001 404.02429180000047 473.1904599000001 C 404.9031980000005 476.2173459000001 407.59487900000045 483.51245090000015 413.58581520000047 485.89508030000013 C 415.18780490000046 486.53182960000015 416.2147214000005 486.5101621000001 417.52075170000046 486.48324560000015 C 419.07751440000044 486.45187350000015 421.01657080000047 486.4114988000001 423.61556980000046 487.59832740000013 C 429.3184201000005 490.2051694000001 431.79818700000044 495.66921970000016 433.60910010000043 499.6594541000001 C 435.09613010000044 502.93649270000014 436.5464170000004 506.31527690000013 437.95626810000044 509.7790830000001 L 458.17639140000045 502.97405980000013 C 458.8061521000005 502.7636716000001 459.4547117000005 502.81008890000015 460.02593970000044 503.03991670000016 L 454.50753760000043 415.3724057000002 C 454.02990700000043 415.79376190000016 453.4071043000004 416.0455319000002 452.73962380000046 416.0455319000002 C 452.61444070000044 416.0455319000002 452.48773170000044 416.03655970000017 452.35995460000044 416.01861540000016 C 451.10696390000044 415.84072840000016 439.96362280000045 413.97753870000014 434.5646055000004 403.44406100000015 C 433.6448667000004 401.64950530000016 433.0277097000004 399.87609840000016 432.6308286000004 398.1658322000001 L 421.21353120000043 395.2188412000001 C 419.7811887000004 394.8492428000001 418.91983000000045 393.3885189000001 419.28939790000044 391.9558102000001 C 419.6597287000004 390.5234677000001 421.11935400000044 389.6628414000001 422.55282560000046 390.0316769000001 L 432.03628510000044 392.4796139000001 C 432.11181610000045 388.2180783000001 433.29104580000046 384.8978878000001 433.85870330000046 383.5422360000001 C 434.43008390000045 382.1782834000001 435.99880950000045 381.5355527000001 437.36425750000046 382.10617030000014 C 438.72860690000044 382.67752040000016 439.3717038000005 384.24700890000014 438.80035370000047 385.61172450000015 C 438.24804660000046 386.93045010000014 435.6781918000005 393.87094080000014 439.33209200000044 401.00051840000015 C 443.50057950000047 409.13269000000014 452.14096040000044 410.5766292000001 453.11254850000046 410.7145077000001 C 453.53482020000047 410.7743832000001 453.91320770000044 410.93795740000013 454.24261440000043 411.16375700000015 L 448.86666840000044 325.75988740000014 L 428.7374265000004 335.44686860000013 C 428.8731995 335.6009216 428.9977417 335.7677612 429.0982971 335.9569397 z M 379.1673889 432.7642822 C 378.7600708 432.87899780000004 376.91668699999997 433.35583490000005 374.4312744 433.35583490000005 C 371.296814 433.3562011 367.1406555 432.59799190000007 363.55325320000003 429.3992309 C 358.25027470000003 424.67059320000004 356.70730590000005 416.604187 359.80105590000005 409.7832641 C 360.41278080000006 408.4361266 362.00170900000006 407.8393554 363.34698490000005 408.4503478 C 364.6941224 409.0613097 365.29089360000006 410.64910879999996 364.67993170000005 411.9962462 C 362.54431160000007 416.7039488 363.54727180000003 422.21621689999995 367.11862190000005 425.40078719999997 C 371.4941102 429.3028258 377.4618836000001 427.6787718 377.71450810000005 427.6081541 C 379.1397400000001 427.2090452 380.61840820000003 428.0356443 381.01901250000003 429.45974709999996 C 381.4203491 430.8835144 380.5915222 432.3629456 379.1673889 432.7642822 z" stroke-linecap="round" />
</g>
		<g transform="matrix(1 0 0 1 56.864410542296355 105.61166414999991)"  >
<linearGradient id="SVGID_26_763540" gradientUnits="userSpaceOnUse" gradientTransform="matrix(1 0 0 1 424.08026110000014 559.407959)"  x1="0" y1="0" x2="0" y2="398">
<stop offset="0%" style="stop-color:rgb(23,234,217);stop-opacity: 1"/>
<stop offset="100%" style="stop-color:rgb(96,120,234);stop-opacity: 1"/>
</linearGradient>
<path style="stroke: none; stroke-width: 1; stroke-dasharray: none; stroke-linecap: butt; stroke-dashoffset: 0; stroke-linejoin: miter; stroke-miterlimit: 4; fill: url(#SVGID_26_763540); fill-rule: nonzero; opacity: 1;"  paint-order="stroke"  transform=" translate(-436.2917326922966, -575.62826545)" d="M 447.0502319 575.3303223 C 445.5398864 569.5860596 442.8540039 564.1295166 439.22891230000005 559.407959 C 435.60018920000005 561.9243775 431.19125360000004 563.2452393 426.6091918000001 563.2452393 C 425.7708739000001 563.2452393 424.9262389000001 563.1843262 424.0802611000001 563.0955200999999 L 448.2093505000001 591.8485718999999 C 448.8393555 586.3338623 448.4578552 580.6854858 447.0502319 575.3303223 z" stroke-linecap="round" />
</g>
		<g transform="matrix(1 0 0 1 -28.09538467538715 3.070770499999867)"  >
<linearGradient id="SVGID_763531" gradientUnits="userSpaceOnUse" gradientTransform="matrix(1 0 0 1 0 0)"  x1="293.9745483" y1="473.0873718" x2="408.6893311" y2="473.0873718">
<stop offset="0%" style="stop-color:rgb(92,224,230);stop-opacity: 1"/>
<stop offset="100%" style="stop-color:rgb(55,182,255);stop-opacity: 1"/>
</linearGradient>
<path style="stroke: none; stroke-width: 1; stroke-dasharray: none; stroke-linecap: butt; stroke-dashoffset: 0; stroke-linejoin: miter; stroke-miterlimit: 4; fill: url(#SVGID_763531); fill-rule: nonzero; opacity: 1;"  paint-order="stroke"  transform=" translate(-351.3319374746131, -473.0873717999999)" d="M 402.3890381 495.5705872 C 398.0464173 490.3748169 392.6126404 488.2149353 387.3578491 486.1267701 C 382.1060791 484.0393372 378.7470093 483.6850892 375.78366090000003 483.3726807 C 372.9309387 483.0715027 370.23666380000003 482.7875061 366.96801760000005 481.04983519999996 C 360.38027960000005 477.5469055 358.7345581000001 472.02157589999996 356.82876590000006 465.62405399999994 C 355.60681160000007 461.52172859999996 354.2219239000001 456.8715515999999 351.31726080000004 451.47326659999993 C 342.50421150000005 435.0957030999999 327.54702760000004 426.38619989999995 310.22851570000006 416.3007506999999 C 304.9849854000001 413.24743649999994 299.5404053000001 410.4928282999999 293.97454840000006 408.0565795999999 L 369.4065858000001 497.9442443999999 C 370.3787538000001 497.6595763999999 371.46997080000006 497.93478399999987 372.17944350000005 498.7484130999999 C 373.6966249000001 500.48904419999985 379.26867690000006 506.17056279999986 387.26928730000003 506.18850709999987 C 387.28201310000003 506.18850709999987 387.29470840000005 506.18850709999987 387.30703750000004 506.18850709999987 C 389.70983900000004 506.18850709999987 392.1010744 505.68777469999986 394.41604630000006 504.70050049999986 C 395.7751466000001 504.1212768999999 397.3498842000001 504.75280759999987 397.9305727000001 506.1137694999999 C 398.5109255000001 507.4747313999999 397.8786318000001 509.04797359999986 396.5176699000001 509.6286620999999 C 393.5349123000001 510.9006957999999 390.4362795000001 511.5456847999999 387.3074038000001 511.5456847999999 C 387.2905886000001 511.5456847999999 387.27417020000007 511.5456847999999 387.2573550000001 511.5456847999999 C 384.4830325000001 511.5394286999999 381.9710696000001 511.0237426999999 379.72314480000006 510.2378844999999 L 403.11978180000006 538.1181639999999 C 405.92584260000007 532.9627074999999 407.66699250000005 527.4633177999999 408.28170810000006 521.7376097999999 C 408.7790833 517.1046753 410.1000671 504.7984009 402.3890381 495.5705872 z" stroke-linecap="round" />
</g>
</g>
</g>
		<g transform="matrix(0.45923299348275043 0 0 0.45923299348275043 0 -14.536010830883612)"  >
<g style=""  paint-order="stroke"   >
		<g transform="matrix(1 0 0 1 0 0)"  >
<linearGradient id="SVGID_763532" gradientUnits="userSpaceOnUse" gradientTransform="matrix(1 0 0 1 0 0)"  x1="266.7760315" y1="481.0340881" x2="689.8984985" y2="481.0340881">
<stop offset="0%" style="stop-color:rgb(92,224,230);stop-opacity: 1"/>
<stop offset="100%" style="stop-color:rgb(55,182,255);stop-opacity: 1"/>
</linearGradient>
<path style="stroke: none; stroke-width: 1; stroke-dasharray: none; stroke-linecap: butt; stroke-dashoffset: 0; stroke-linejoin: miter; stroke-miterlimit: 4; fill: url(#SVGID_763532); fill-rule: nonzero; opacity: 1;"  paint-order="stroke"  transform=" translate(-478.33726637441083, -481.03408803912305)" d="M 689.8497314 400.6938477 C 689.7129516 400.0440064 689.3026733 399.48498539999997 688.7227172 399.16094979999997 L 479.4577026 282.145813 C 479.3757934 282.1000977 479.2863159 282.0786743 479.2007446 282.0437012 C 479.1072998 282.0054322 479.017334 281.9578247 478.9206543 281.93243409999997 C 478.8312378 281.90899659999997 478.73968510000003 281.9067993 478.6486206 281.8942871 C 478.5437622 281.8798218 478.44030760000004 281.8568725 478.3346558 281.8569336 C 478.2455445 281.8569946 478.1585083 281.8780518 478.0699463 281.8884888 C 477.9627686 281.901062 477.8554077 281.9053955 477.75036620000003 281.9331665 C 477.6586914 281.95733640000003 477.5734863 282.00323490000005 477.4846802 282.0389404 C 477.3951416 282.0750122 477.3018799 282.0979614 477.2163086 282.145813 L 267.9512939 399.1609497 C 267.3720703 399.4849853 266.9613647 400.0440063 266.8250122 400.6938476 C 266.6885986 401.34332270000004 266.840332 402.02044670000004 267.2405395 402.5499267 L 476.50555410000004 679.3001707999999 C 476.51739490000006 679.3158567999999 476.53338610000003 679.3265379999999 476.54559320000004 679.3418578 C 476.63140860000004 679.4497068999999 476.7272338 679.5487059 476.83160390000006 679.6398925 C 476.85955800000005 679.6643065999999 476.88598620000005 679.6895751 476.91497790000005 679.7124633 C 477.03485090000004 679.807373 477.16345200000006 679.8919066999999 477.30249010000006 679.9620970999999 C 477.33007800000007 679.9760130999999 477.35913070000004 679.9854124999999 477.38726790000004 679.9982299 C 477.45947250000006 680.0311277999999 477.53039530000007 680.066101 477.6068114 680.0916747 C 477.65216050000004 680.1069335 477.69848620000005 680.1134032 477.74420150000003 680.1256713 C 477.7877196 680.137329 477.83032210000005 680.1488647 477.8745116 680.1579589 C 478.0283202 680.1897582 478.18267810000003 680.2112426 478.3366088 680.2112426 C 478.3367309 680.2112426 478.3368529 680.2111816 478.336975 680.2111816 C 478.3370971 680.2111816 478.33721909999997 680.2112426 478.33734119999997 680.2112426 C 478.49127189999996 680.2112426 478.64569079999995 680.1897582 478.79949939999995 680.1579589 C 478.84368889999996 680.1488647 478.88629139999995 680.137329 478.9298094999999 680.1256713 C 478.9755247999999 680.1134032 479.0218504999999 680.1069335 479.0671995999999 680.0916747 C 479.1436155999999 680.066101 479.21453849999995 680.0311278 479.2867430999999 679.9982299 C 479.3148802999999 679.9854124999999 479.34393299999994 679.9760130999999 479.3715208999999 679.9620970999999 C 479.51049799999987 679.8919676999999 479.6390379999999 679.807434 479.7588499999999 679.7125854 C 479.7879026999999 679.6896362 479.8144529999999 679.6641844999999 479.8425291999999 679.6397094 C 479.9468382999999 679.5485839 480.0426023999999 679.4496459000001 480.1284178999999 679.3418578000001 C 480.14062489999986 679.326538 480.1566160999999 679.3158568000001 480.1684569999999 679.3001708 L 689.4334715999998 402.54992670000007 C 689.8340454 402.0204468 689.9857788 401.3433228 689.8497314 400.6938477 z M 476.0410767 288.064209 L 476.0410767 671.0723877 L 272.493103 401.8825073 L 476.0410767 288.064209 z M 480.6329346 671.0723877 L 480.6329346 288.064209 L 684.1816407 401.8825073 L 480.6329346 671.0723877 z" stroke-linecap="round" />
</g>
		<g transform="matrix(1 0 0 1 100.91773807457702 -10.2171323688504)"  >
<linearGradient id="SVGID_763533" gradientUnits="userSpaceOnUse" gradientTransform="matrix(1 0 0 1 0 0)"  x1="487.1856384" y1="470.8169556" x2="671.3244019" y2="470.8169556">
<stop offset="0%" style="stop-color:rgb(92,224,230);stop-opacity: 1"/>
<stop offset="100%" style="stop-color:rgb(55,182,255);stop-opacity: 1"/>
</linearGradient>
<path style="stroke: none; stroke-width: 1; stroke-dasharray: none; stroke-linecap: butt; stroke-dashoffset: 0; stroke-linejoin: miter; stroke-miterlimit: 4; fill: url(#SVGID_763533); fill-rule: nonzero; opacity: 1;"  paint-order="stroke"  transform=" translate(-579.2550044489878, -470.81695567027265)" d="M 488.6309204 618.7539673 C 488.9071045 618.864563 489.19561769999996 618.9176026 489.48071289999996 618.9176026 C 490.14624019999997 618.9176026 490.79534909999995 618.628418 491.2411499 618.0962525 L 587.8842773 502.7908326 C 588.109375 502.5495606 588.3187866 502.31945809999996 588.4976196 502.1143189 C 588.5953979 502.0020752 588.6742553 501.8804322 588.750122 501.7578126 L 670.7879638 403.8780519 C 671.2438964 403.3342897 671.4224853000001 402.6104738 671.2722778000001 401.9169313 C 671.1220703000001 401.223755 670.6601562000001 400.6389162 670.0204467000001 400.3324586 L 508.4277343000001 322.9415284 C 507.7387084000001 322.6119386 506.9329833000001 322.6455689 506.2723388000001 323.0327149 C 505.61389150000014 323.41986089999995 505.1916503000001 324.10894779999995 505.14453120000013 324.87091069999997 L 487.19000240000014 616.4804687999999 C 487.1290894 617.4699707 487.7102051 618.3870239 488.6309204 618.7539673 z M 508.3128662 590.5795288 C 507.85412599999995 585.4216919 508.27490229999995 580.1716919 509.58770749999996 575.1760864 C 511.1004028 569.4240722000001 513.7903441999999 563.9616699000001 517.4212036 559.2371216 C 521.0496216 561.7532959 525.4467163 563.0910645 530.0291138 563.0910645 C 530.4832764 563.0910645 530.9406739 563.0629883 531.3977051 563.0369263 L 508.3128662 590.5795288 z M 586.1555176 497.7052002 C 585.5219727000001 497.7822266 584.9120484 498.0748901 584.4588623000001 498.59417729999996 C 582.9416504000001 500.33483889999997 577.3699951000001 506.01635749999997 569.3685913 506.0343018 C 569.355896 506.0343018 569.3439331000001 506.0343018 569.3312378 506.0343018 C 566.9291992000001 506.0343018 564.5375977000001 505.5335694 562.2222290000001 504.5462647 C 560.8597412 503.9678345 559.2880249000001 504.5985718 558.7073364 505.9595337 C 558.1273803 507.32055660000003 558.7596435 508.8937378 560.1206054 509.4744873 C 563.1041259000001 510.74646 566.2027587 511.3914795 569.3312377000001 511.3914795 C 569.3476562000001 511.3914795 569.3641356 511.3914795 569.3805541 511.3914795 C 571.5402831 511.3866577 573.5371093 511.0671387 575.3808593 510.5604858 L 553.088684 537.1573486 C 550.5344236999999 532.2366333 548.9393309999999 527.0124511 548.3569335 521.5826416 C 547.8591918 516.9504395 546.5385741 504.644165 554.2492675 495.4163818 C 558.5914915999999 490.2206421 564.0249023 488.0607299 569.2803954 485.9725341 C 574.5322265 483.8851318 577.8909301 483.5308837 580.8549803999999 483.2184447 C 583.7069700999999 482.9172972 586.4012449999999 482.6333007 589.6710204 480.8956298 C 596.2583617 477.3927001 597.9041136999999 471.8673705 599.8098754 465.4698486 C 601.0318603000001 461.3674926 602.416748 456.71734619999995 605.3210448 451.31909179999997 C 614.1348265 434.94073489999994 629.0919799 426.23083499999996 646.411621 416.145813 C 651.0226438999999 413.46057129999997 655.7956542 411.01916509999995 660.6642455 408.8086548 L 586.1555176 497.7052002 z M 498.440918 508.4655762 L 516.7071534 514.6130371 C 514.9960328000001 519.0397339 513.3497315000001 523.5858765 511.7849732 528.2380371 C 511.3133545 529.6408691 512.0674439000001 531.1594849 513.4695435 531.6311035 C 513.7528077 531.7260132 514.0412598 531.7716064 514.3237915 531.7716064 C 515.4426268999999 531.7716064 516.4859619 531.0653685999999 516.8626098999999 529.9465332 C 520.2160644999999 519.9765625 523.9320068999999 510.4789429 527.9065552 501.71893309999996 C 529.8691405999999 497.39691159999995 531.656128 493.95971679999997 535.2495117 492.31701659999993 C 536.7337646 491.63836669999995 537.6859741 491.65856929999995 539.0057982999999 491.6854857999999 C 540.5297241 491.7168578999999 542.4235229 491.7564696999999 545.0326537999999 490.71838369999995 C 552.9226683999999 487.58013909999994 556.3919678 479.2312620999999 557.7589111 474.53100579999995 C 558.718872 471.22601309999993 559.0571289 467.78869619999995 558.7790527 464.29730219999993 C 558.8389892 464.26788329999994 558.8984375 464.24182119999995 558.958435 464.2120360999999 C 563.9786987 461.7167357999999 568.4505615 458.0805052999999 571.9699096 453.68017569999995 C 573.6484985000001 454.86102289999997 575.5974120000001 455.6882322999999 577.6973266 456.08734119999997 C 577.8662719 456.11944569999997 578.0344238 456.1351317 578.2003173 456.1351317 C 579.4611205000001 456.1351317 580.5844726 455.2405394 580.8288573000001 453.95581039999996 C 581.1053466000001 452.50292949999994 580.1510009000001 451.10082989999995 578.6973265000001 450.82427959999995 C 577.5120238000002 450.59857159999996 575.7796019000001 450.0440672 574.2616576000001 448.67822249999995 C 570.8110350000002 445.57324199999994 571.2086180000001 440.65930159999994 571.2654418000002 440.10919169999994 C 571.4171752000002 438.63763409999996 570.3476562000002 437.32189919999996 568.8760985000002 437.17016579999995 C 567.4067381000002 437.01806619999996 566.0883788000002 438.08831769999995 565.9366454000002 439.55987529999993 C 565.8239135000002 440.65447979999993 565.5237426000002 445.4487912999999 568.2440184000002 449.76946999999996 C 565.1464232000002 453.82232639999995 561.1149290000002 457.15765359999995 556.5743407000002 459.41534399999995 C 550.1020507000002 462.63128639999996 543.9616698000002 463.0610348999999 539.9497679000002 462.85327119999994 C 538.4669798000002 462.7837521999999 537.2136229000002 463.91308569999995 537.1365965000002 465.38989229999993 C 537.0603636000002 466.86743139999993 538.1956785000002 468.12676969999995 539.6732176000003 468.20300269999996 C 540.2920530000002 468.23510719999996 540.9526976000003 468.2537839 541.6537474000003 468.2537839 C 544.9269408000002 468.2537839 549.0479735000002 467.83569309999996 553.5146483000003 466.41271939999996 C 553.5349120000003 468.67205779999995 553.2372435000003 470.89141809999995 552.6140135000003 473.03771939999996 C 551.7343138000003 476.06384239999994 549.0407713000003 483.35900849999996 543.0528563000003 485.74084439999996 C 541.4497069000003 486.37762419999996 540.4228514000002 486.3559567 539.1171874000003 486.32904019999995 C 537.5603637000003 486.29614229999993 535.6209716000003 486.2565304 533.0223388000003 487.4441525 C 527.3206176000003 490.05096399999996 524.8400878000003 495.51501429999996 523.0284423000003 499.5052487 C 521.5413818000003 502.7822873 520.0912475000002 506.1611325 518.6815185000003 509.6248776 L 498.78192130000025 502.927612 L 504.1419067000003 415.8735959 C 504.1869506000003 415.8695065 504.2315673000003 415.8705441 504.2768554000003 415.8640134 C 505.5294189000003 415.6868894 516.6712646000003 413.828552 522.0740356000002 403.2894895 C 522.9935302000002 401.4951169 523.6043090000003 399.7235715 524.0009765000002 398.0132444 L 535.4251098000002 395.06500220000004 C 536.8571166000002 394.6950681 537.7188110000002 393.23431370000003 537.3488769000002 391.80194070000005 C 536.9796752000002 390.36926250000005 535.5200805000002 389.50866680000007 534.0858154000001 389.8774412 L 524.5994262000002 392.3256834 C 524.5235595000001 388.0654295 523.3467407000002 384.7445677 522.7796020000002 383.38879380000003 C 522.2078247000002 382.0229491 520.6361083000002 381.38171370000003 519.2751464000002 381.95159900000004 C 517.9104613000002 382.52294910000006 517.2669677000001 384.09204090000003 517.8379516000001 385.45672600000006 C 518.3895263 386.7762450000001 520.9589843000001 393.71899410000003 517.3065795000001 400.84594720000007 C 513.7719115000001 407.7410278000001 507.0462646000001 409.82092280000006 504.48010240000013 410.3806762000001 L 509.51818830000013 328.55505360000006 L 526.9855345000001 336.92059320000004 C 525.5598143000001 339.95501700000005 524.7187498000001 343.28271480000006 524.5478514000001 346.6220703 C 524.3513182000002 350.45465090000005 525.0276488000002 354.3547974 526.5037230000002 357.901062 C 526.9327391000002 358.93023680000005 527.9282225000002 359.5509033 528.9775389000001 359.5509033 C 529.3206175000001 359.5509033 529.6696165000001 359.484375 530.0059202000001 359.34423830000003 C 531.3721311000002 358.7758789 532.0178831000001 357.20788580000004 531.4498289 355.84204100000005 C 530.6854246 354.00579830000004 530.1967161 352.04974360000006 529.9890135 350.06768800000003 C 531.8000487 350.16229250000004 534.2145384 350.65917970000004 536.4677122 352.3200684 C 538.6036985000001 353.89514160000004 539.7487181 355.88989260000005 540.3331297000001 357.286377 C 540.7628782 358.3132325 541.7576292000001 358.9317017 542.8046873000001 358.9317017 C 543.1500242000001 358.9317017 543.5004881000001 358.86480720000003 543.8375852 358.72320560000003 C 545.2022703 358.15222170000004 545.8457639000001 356.5830689 545.2747800000001 355.2183838 C 544.4302365000001 353.1993408 542.7680661 350.3092651 539.6470334 348.0081177 C 536.3031613 345.5437012 532.7476193000001 344.8373413 530.1295163000001 344.71698000000004 C 530.4334103000001 342.8244629 531.0037228000001 340.96923830000003 531.8151852000001 339.23364260000005 L 604.3530880000001 373.9737549000001 C 599.5628658 374.8807373000001 593.8883053000001 377.12048340000007 589.0402218 382.2785645000001 C 585.9877926 385.5264283000001 584.1204220000001 389.06036380000006 583.0049435000001 392.4600220000001 C 579.9346310000001 392.23370360000007 576.8510128 392.1796265000001 573.7745968 392.2984009000001 C 574.9969479 388.0760498000001 576.464111 379.3112183000001 571.1765133 370.9214478000001 C 565.7311398 362.2817994000001 556.8388668 359.99749760000014 554.2432858 359.50305180000015 C 552.7843624999999 359.22619630000014 551.3867795 360.18017580000014 551.1102902 361.6331177000001 C 550.8337399 363.0863648000001 551.7874142000001 364.48883060000014 553.2402951 364.7653198000001 C 555.3000485 365.1577148000001 562.3515012 366.9663696000001 566.6444089 373.7778930000001 C 572.0920407 382.42169180000013 568.4299314 391.6375121000001 567.9942014000001 392.6599731000001 C 567.9845578000001 392.6826782000001 567.9816282 392.7062988000001 567.972656 392.72906490000014 C 567.4478147 392.7866821000001 566.9227292 392.84259030000015 566.3992917 392.91033930000015 C 560.8317868 393.63153070000016 556.3323972000001 394.2155151000001 552.8439938 395.53143310000013 C 552.8994137 394.28387450000014 552.851257 393.03771970000014 552.6812741 391.7974853000001 C 551.4413449 382.7673339000001 544.6358029 377.65417480000013 541.7299802 375.4707031000001 C 533.7084348 369.4435425000001 524.7944944 368.8594360000001 520.1981198 369.05413820000007 C 518.7198483 369.1154175000001 517.5711056 370.36315920000004 517.6323848999999 371.84149170000006 C 517.6937251999999 373.31903080000006 518.9552608999999 374.47186280000005 520.4193721999999 374.4068604000001 C 524.3049922999999 374.2465210000001 531.8205562999999 374.7263184000001 538.5117793999999 379.7539063000001 C 541.0842280999999 381.6866456000001 546.4376826999999 385.7086182000001 547.3734126999999 392.5258179000001 C 547.7396236 395.1945191000001 547.3906855999999 397.9254151000001 546.3444209999999 400.6452027000001 C 544.4869380999999 403.7024537000001 544.6430049999999 406.7167969000001 544.7867427999998 409.1571046000001 C 544.9309688999998 411.6137086000001 545.0356441999999 413.38873300000006 543.5700069999998 415.2933961000001 C 542.6724239999998 416.4608155000001 541.9586788999998 416.7145387000001 540.5379024999999 417.22088630000013 C 538.9945674999999 417.77020270000014 537.0745845999999 418.45404060000016 534.6912227999999 420.44207770000014 C 531.2471919999999 423.31329350000016 529.3388057999999 426.7880250000001 527.9595332999999 430.7227173000001 C 526.8065181999999 429.4451294000001 525.6586909999999 427.76824950000014 524.8961177999998 425.6254883000001 C 523.8333736999998 422.6408692000001 523.9290156999998 419.91479490000006 524.1958614999999 418.15325930000006 C 524.4170528999998 416.69061280000005 523.4111324999999 415.32556150000005 521.9484859999999 415.10394290000005 C 520.4791866999999 414.8815918 519.1196895999999 415.88903810000005 518.8984371999999 417.3513184 C 518.3842769999999 420.74737550000003 518.7131344999999 424.22973640000004 519.8491207999999 427.42181400000004 C 521.4068600999999 431.7971802 524.1315914999999 434.7318116 526.2766109999999 436.50231940000003 C 526.1035762999999 437.18286140000004 525.9316402999999 437.87011730000006 525.7578731999998 438.56964120000004 C 524.3885494999998 444.08386240000004 523.8354488999998 449.8162232 524.0894771999998 455.62359630000003 C 523.3052364999998 455.99591080000005 522.5158687999998 456.40966810000003 521.7250362999998 456.8802491 C 512.7968746999999 462.1948243 509.4696041999998 470.77093510000003 508.45318569999984 474.2118531 C 508.03387419999984 475.6303712 508.8440547999998 477.1198731 510.26330529999984 477.5391846 C 510.5166621999998 477.6138916 510.77154499999983 477.6497803 511.02337609999984 477.6497803 C 512.1795650999999 477.6497803 513.2468257999998 476.8949585 513.5906367999999 475.729065 C 514.4284053999999 472.89349369999996 517.1645503999998 465.8293458 524.4649043999999 461.4840699 C 529.0761714999999 458.7397462 533.6762690999999 458.1538087 536.7225947999999 458.1463013 C 538.2023922 458.1425782 539.3981928999999 456.9400635 539.3944697999999 455.4609986 C 539.3906855999999 453.9834595 538.1918940999999 452.7891236 536.7158808999999 452.7891236 C 536.7136225999999 452.7891236 536.7113642999999 452.7891236 536.7091059999999 452.7891236 C 534.7194208999999 452.7943726 532.1826166999999 453.0075074 529.3896479999999 453.71618659999996 C 529.3229975999999 448.9960938 529.8427119999999 444.34661869999996 530.9566035999999 439.86108409999997 C 531.2245478999998 438.78265389999996 531.4837641999999 437.7453614 531.7478022999999 436.7424928 C 531.9409174999998 436.37585459999997 532.0469965999998 435.9842531 532.0596918999998 435.5897218 C 533.3325189999998 431.0096437 534.8471064999999 427.2869264 538.1216425999999 424.5563356 C 539.7718500999998 423.1800539 541.0169672999998 422.7368776 542.3345942999998 422.2675172 C 544.0319209999998 421.6632692 545.9556269999998 420.9779054 547.8165888999998 418.5601808 C 550.5011591999998 415.0699464 550.2978510999998 411.6166994 550.1342158999998 408.8421022 C 550.0056758999998 406.6556398 549.9039912999998 404.9288332 551.0235591999998 403.2356569 C 553.0526729999998 400.16583269999995 557.6699824999998 399.44311539999995 567.0868526999998 398.22338879999995 C 571.9551998999998 397.59289559999996 576.8924556999998 397.43438729999997 581.7965084999997 397.7434694 C 580.9767452999997 403.77539079999997 582.1174313999998 408.4707643 582.2047726999997 408.8151857 C 582.5126950999997 410.0277711 583.6030880999997 410.83532729999996 584.7988888999997 410.83532729999996 C 585.0171505999997 410.83532729999996 585.2390743999997 410.80841079999993 585.4603268999997 410.75238049999996 C 586.8937985999997 410.38800059999994 587.7614743999997 408.93066419999997 587.3975216999997 407.49682629999995 C 587.2697140999998 406.99383559999995 584.3684078999997 395.07171639999996 592.9437862999997 385.94738779999994 C 601.3637081999997 376.99011239999993 613.2521358999998 378.92767339999995 613.7528682999997 379.0132447 C 614.1162715999997 379.0763551 614.4728389999997 379.0597535 614.8092036999997 378.9814454 L 620.9283442999997 381.9120484 L 622.6743159999997 398.906128 L 618.5801997999997 409.2886353 C 618.0375972999997 410.664917 618.7131953999997 412.2205811 620.0891108999997 412.7631836 C 620.4119868999996 412.890625 620.7438349999996 412.9507446 621.0711665999997 412.9507446 C 622.1391597999998 412.9507446 623.1481318999997 412.3076782 623.5636592999997 411.25421140000003 L 626.3557124999998 404.1744385 L 631.0964351999997 408.9149781 C 631.6196285999997 409.4377442 632.3049312999998 409.6993409 632.9902950999998 409.6993409 C 633.6756588999998 409.6993409 634.3617550999998 409.4377442 634.8841549999999 408.9145509 C 635.9304806999999 407.8686525 635.9304806999999 406.17285169999997 634.8841549999999 405.126526 L 627.9907223999999 398.2334596 L 626.5921627999999 384.6246339 L 662.8801876999999 402.00384529999997 C 656.3044430999998 404.75976569999995 649.8722530999999 407.93096929999996 643.7150875999998 411.5165406 C 636.4633785999998 415.7393189 629.3884273999998 419.8709718 622.9056393999998 424.5463258 C 620.1932980999998 424.19299329999996 615.8138424999999 423.0526124 612.4248043999999 419.4308473 C 607.5661617999998 414.23773209999996 606.6080318999999 405.7180787 610.0407101999998 398.2308961 C 610.6572872999998 396.8863526 610.0668331999998 395.2963258 608.7223507999998 394.6797486 C 607.3778072999999 394.0627442 605.7874142999998 394.6531983 605.1707760999999 395.9984742 C 600.7739864999999 405.58764659999997 602.0863645 416.222046 608.5130612999999 423.0911256 C 611.3004147999999 426.0695192 614.5469357999999 427.7782594 617.4482419999999 428.7575685 C 610.7845457 434.2721559 604.9750975 440.6572877 600.6035764999999 448.781006 C 597.4392088 454.66204849999997 595.9063719 459.807007 594.6754149 463.940735 C 592.8600461999999 470.03552260000004 591.7636716999999 473.7148439 587.1561277999999 476.164734 C 584.8056028999999 477.41436780000004 582.9125364999999 477.6138917 580.2929685999999 477.890442 C 577.1495359999999 478.2222901 573.2377927999999 478.6348268 567.3013914999999 480.9935304 C 561.9771116999999 483.11010749999997 555.3508909999999 485.7438356 550.1386717999999 491.9814454 C 540.9691771999999 502.9543458 542.5199583999998 517.4055787 543.0296629999999 522.154419 C 543.7619017999999 528.9723511 545.9140014 535.4917603 549.3992308999999 541.5592651999999 L 536.741333 556.661377 C 536.4925537 556.6685791 536.2418213000001 556.6981202000001 535.9931641000001 556.7787476 C 529.7435913 558.8056031 523.1674805 557.564209 518.8274537000001 553.543335 C 515.2072144000001 550.1891479999999 514.1765748000001 545.8805542 513.8850709000001 543.6099853999999 C 513.6959840000001 542.1421508999999 512.3462525000001 541.1055297999999 510.88659680000006 541.2946166999999 C 509.4194947000001 541.4837035999999 508.3829347000001 542.8259887999999 508.57122810000004 544.2930907999998 C 508.90545660000004 546.8887328999998 509.98571780000003 551.5181884999998 513.4448243 555.6400145999999 C 509.24798590000006 561.0051268999998 506.13610850000003 567.2374876999999 504.4068604 573.8143919999999 C 502.519043 580.9943846999998 502.2559205 588.6459959999999 503.64379890000004 595.9426268999999 C 503.65405280000004 595.9964599 503.67462170000005 596.045227 503.68786630000005 596.0975951999999 L 492.2015382000001 609.8019408999999 L 498.440918 508.4655762 z" stroke-linecap="round" />
</g>
		<g transform="matrix(1 0 0 1 108.63147966574837 -60.40439503976677)"  >
<linearGradient id="SVGID_763534" gradientUnits="userSpaceOnUse" gradientTransform="matrix(1 0 0 1 0 0)"  x1="575.5181274" y1="420.6296997" x2="598.4193726" y2="420.6296997">
<stop offset="0%" style="stop-color:rgb(92,224,230);stop-opacity: 1"/>
<stop offset="100%" style="stop-color:rgb(55,182,255);stop-opacity: 1"/>
</linearGradient>
<path style="stroke: none; stroke-width: 1; stroke-dasharray: none; stroke-linecap: butt; stroke-dashoffset: 0; stroke-linejoin: miter; stroke-miterlimit: 4; fill: url(#SVGID_763534); fill-rule: nonzero; opacity: 1;"  paint-order="stroke"  transform=" translate(-586.9687460401592, -420.6296929993563)" d="M 593.0842896 429.2449951 C 598.3876343000001 424.5163574 599.9309693 416.4499512 596.8368531 409.6290893 C 596.2254639 408.2815551 594.638794 407.68511959999995 593.2905274 408.2961425 C 591.9437866999999 408.9071044 591.3466187 410.494873 591.9580079 411.8420409 C 594.0932617999999 416.5497435 593.0902711 422.06201159999995 589.5192872 425.24658189999997 C 585.140442 429.15118399999994 579.1771241 427.52532949999994 578.9260255 427.45391829999994 C 577.5022584000001 427.0526120999999 576.0217286000001 427.87921129999995 575.619629 429.30328349999996 C 575.2175904000001 430.72668439999995 576.0456544 432.206848 577.4686280000001 432.60931379999994 C 577.8767091000001 432.72442609999996 579.7212525000001 433.20312479999996 582.2099610000001 433.20312479999996 C 585.34375 433.203125 589.4976196 432.4437866 593.0842896 429.2449951 z" stroke-linecap="round" />
</g>
		<g transform="matrix(1 0 0 1 -100.91806550044038 -10.217133976096875)"  >
<linearGradient id="SVGID_763535" gradientUnits="userSpaceOnUse" gradientTransform="matrix(1 0 0 1 0 0)"  x1="285.3496704" y1="470.8169556" x2="469.488739" y2="470.8169556">
<stop offset="0%" style="stop-color:rgb(92,224,230);stop-opacity: 1"/>
<stop offset="100%" style="stop-color:rgb(55,182,255);stop-opacity: 1"/>
</linearGradient>
<path style="stroke: none; stroke-width: 1; stroke-dasharray: none; stroke-linecap: butt; stroke-dashoffset: 0; stroke-linejoin: miter; stroke-miterlimit: 4; fill: url(#SVGID_763535); fill-rule: nonzero; opacity: 1;"  paint-order="stroke"  transform=" translate(-377.41920087397045, -470.8169540630262)" d="M 450.4013062 323.0327148 C 449.7424927 322.645996 448.93530280000004 322.6115722 448.24621590000004 322.9415283 L 286.65393070000005 400.33245850000003 C 286.01416020000005 400.63891600000005 285.55194100000006 401.2237549 285.40173340000007 401.9169312 C 285.25146480000006 402.6104737 285.43048100000004 403.33428960000003 285.88598630000007 403.87805180000004 L 465.43322750000004 618.0962525 C 465.8790283 618.628418 466.52813720000006 618.9176026 467.19366450000007 618.9176026 C 467.47875970000007 618.9176026 467.7672729000001 618.864563 468.04339590000006 618.7539673 C 468.96453850000006 618.3870239 469.5452880000001 617.4699707 469.4843749000001 616.4804688 L 451.5294188000001 324.8709107 C 451.4827271 324.1089478 451.0596924 323.4198608 450.4013062 323.0327148 z M 291.3059692 403.1956787 L 447.1558227 328.5550537 L 464.4728393 609.8019409 L 291.3059692 403.1956787 z" stroke-linecap="round" />
</g>
</g>
</g>
</g>
</g>
<g transform="matrix(1.9211538461538462 0 0 1.9211538461538462 703.6532192459086 480.32264992613426)" id="text-logo-path-group"  >
<g style=""  paint-order="stroke"   >
		<g transform="matrix(1 0 0 1 0 0)" id="text-logo-path-0"  >
<path style="stroke: none; stroke-width: 0; stroke-dasharray: none; stroke-linecap: butt; stroke-dashoffset: 0; stroke-linejoin: miter; stroke-miterlimit: 4; fill: rgb(190,190,190); fill-rule: nonzero; opacity: 1;"  paint-order="stroke"  transform=" translate(-139.85999999999999, 10.92)" d="M 5.42 0 L 2.6 0 L 2.6 -21.84 L 16.87 -21.84 L 16.87 -19.55 L 5.42 -19.55 L 5.42 -12.22 L 16.34 -12.22 L 16.34 -9.93 L 5.42 -9.93 L 5.42 0 Z M 29.31 0 L 26.49 0 L 26.49 -21.84 L 35.8 -21.84 Q 42.03 -21.84 42.03 -16.6 L 42.03 -16.6 Q 42.03 -12.34 35.94 -10.29 L 35.94 -10.29 L 43.44 0 L 39.71 0 L 32.76 -9.82 L 32.76 -11.67 Q 39.02 -12.66 39.02 -16.48 L 39.02 -16.48 Q 39.02 -19.5 35.54 -19.5 L 35.54 -19.5 L 29.31 -19.5 L 29.31 0 Z M 53.39 0 L 50.45 0 L 59.72 -21.84 L 62.85 -21.84 L 72.17 0 L 69.04 0 L 66.21 -6.87 L 58.99 -6.87 L 59.77 -9.16 L 65.27 -9.16 L 61.19 -19.06 L 53.39 0 Z M 83.92 0 L 81.4 0 L 81.4 -21.84 L 84.99 -21.84 L 93.01 -3.62 L 100.87 -21.84 L 104.31 -21.84 L 104.31 0 L 101.79 0 L 101.79 -17.91 L 94.03 0 L 91.8 0 L 83.92 -17.91 L 83.92 0 Z M 130.26 0 L 115.75 0 L 115.75 -21.84 L 130.03 -21.84 L 130.03 -19.55 L 118.58 -19.55 L 118.58 -12.22 L 129.49 -12.22 L 129.49 -9.93 L 118.58 -9.93 L 118.58 -2.29 L 130.26 -2.29 L 130.26 0 Z M 142.54 0 L 138.96 -21.84 L 141.69 -21.84 L 144.76 -2.84 L 150.93 -21.84 L 153.75 -21.84 L 160.36 -2.84 L 163.83 -21.84 L 166.44 -21.84 L 162.33 0 L 158.49 0 L 152.32 -18.29 L 146.35 0 L 142.54 0 Z M 175.29 -10.89 L 175.29 -10.89 Q 175.29 -21.99 186.26 -21.99 L 186.26 -21.99 Q 197.05 -21.99 197.05 -10.89 L 197.05 -10.89 Q 197.05 0.15 186.26 0.15 L 186.26 0.15 Q 175.29 0.15 175.29 -10.89 Z M 178.27 -10.98 L 178.27 -10.98 Q 178.27 -2.14 186.26 -2.14 L 186.26 -2.14 Q 194.07 -2.14 194.07 -10.98 L 194.07 -10.98 Q 194.07 -19.7 186.26 -19.7 L 186.26 -19.7 Q 178.27 -19.7 178.27 -10.98 Z M 210.56 0 L 207.73 0 L 207.73 -21.84 L 217.05 -21.84 Q 223.28 -21.84 223.28 -16.6 L 223.28 -16.6 Q 223.28 -12.34 217.19 -10.29 L 217.19 -10.29 L 224.68 0 L 220.96 0 L 214.01 -9.82 L 214.01 -11.67 Q 220.27 -12.66 220.27 -16.48 L 220.27 -16.48 Q 220.27 -19.5 216.79 -19.5 L 216.79 -19.5 L 210.56 -19.5 L 210.56 0 Z M 236.74 0 L 233.92 0 L 233.92 -21.84 L 236.74 -21.84 L 236.74 0 Z M 248.39 0 L 239.49 -10.51 L 239.49 -12.22 L 248.53 -21.84 L 252.1 -21.84 L 242.27 -11.53 L 252.32 0 L 248.39 0 Z M 260.48 -15.73 L 260.48 -15.73 Q 260.48 -21.99 269.26 -21.99 L 269.26 -21.99 Q 273.08 -21.99 276.36 -21.07 L 276.36 -21.07 L 276.36 -18.48 Q 273.08 -19.7 269.26 -19.7 L 269.26 -19.7 Q 263.3 -19.7 263.3 -15.73 L 263.3 -15.73 Q 263.3 -12.22 267.33 -12.22 L 267.33 -12.22 L 270.14 -12.22 Q 277.12 -12.22 277.12 -6.26 L 277.12 -6.26 Q 277.12 0.15 268.66 0.15 L 268.66 0.15 Q 264.68 0.15 261.24 -0.76 L 261.24 -0.76 L 261.24 -3.36 Q 264.68 -2.14 268.66 -2.14 L 268.66 -2.14 Q 274.3 -2.14 274.3 -6.26 L 274.3 -6.26 Q 274.3 -9.77 270.14 -9.77 L 270.14 -9.77 L 267.33 -9.77 Q 260.48 -9.77 260.48 -15.73 Z" stroke-linecap="round" />
</g>
</g>
</g>
</svg>